<svg width="0" height="0" class="hidden">
  <symbol xmlns="http://www.w3.org/2000/svg" viewBox="0 0 16 17" id="search">
    <path fill-rule="evenodd" clip-rule="evenodd" d="M11.8125 11.2762L15.7567 15.4843C16.0904 15.8403 16.0794 16.4079 15.7326 16.7502C15.5694 16.9114 15.3544 17 15.1278 17C14.8883 17 14.6649 16.9024 14.4988 16.7255L10.5246 12.4854C9.39609 13.299 8.07619 13.7275 6.69113 13.7275C3.0017 13.7275 0 10.6484 0 6.86374C0 3.07913 3.0017 0 6.69113 0C10.3806 0 13.3823 3.07913 13.3823 6.86374C13.3823 8.48359 12.8266 10.0396 11.8125 11.2762ZM11.6367 6.86374C11.6367 4.06632 9.4182 1.79054 6.69113 1.79054C3.96406 1.79054 1.74551 4.06632 1.74551 6.86374C1.74551 9.66117 3.96406 11.9369 6.69113 11.9369C9.4182 11.9369 11.6367 9.66117 11.6367 6.86374Z"></path>
  </symbol>

  <symbol xmlns="http://www.w3.org/2000/svg" viewBox="0 0 16 16" id="insta">
    <path fill-rule="evenodd" clip-rule="evenodd" d="M5 0H11C13.761 0 16 2.239 16 5V11C16 13.761 13.761 16 11 16H5C2.239 16 0 13.761 0 11V5C0 2.239 2.239 0 5 0ZM11 14.5C12.93 14.5 14.5 12.93 14.5 11V5C14.5 3.07 12.93 1.5 11 1.5H5C3.07 1.5 1.5 3.07 1.5 5V11C1.5 12.93 3.07 14.5 5 14.5H11ZM4 8C4 5.791 5.791 4 8 4C10.209 4 12 5.791 12 8C12 10.209 10.209 12 8 12C5.791 12 4 10.209 4 8ZM5.5 8C5.5 9.378 6.622 10.5 8 10.5C9.378 10.5 10.5 9.378 10.5 8C10.5 6.621 9.378 5.5 8 5.5C6.622 5.5 5.5 6.621 5.5 8ZM13.3333 3.66667C13.3333 4.21895 12.8856 4.66667 12.3333 4.66667C11.781 4.66667 11.3333 4.21895 11.3333 3.66667C11.3333 3.11438 11.781 2.66667 12.3333 2.66667C12.8856 2.66667 13.3333 3.11438 13.3333 3.66667Z"></path>
  </symbol>

  <symbol fill="none" xmlns="http://www.w3.org/2000/svg" viewBox="0 0 6 10" id="arrow-right">
    <path d="M5 1L1 5L5 9" stroke-width="1.33333" stroke-linecap="round" stroke-linejoin="round"></path>
  </symbol>
  <symbol fill="none" xmlns="http://www.w3.org/2000/svg" viewBox="0 0 6 10" id="arrow-left">
    <path d="M1 9L5 5L1 1" stroke-width="1.33333" stroke-linecap="round" stroke-linejoin="round"></path>
  </symbol>

  <symbol xmlns="http://www.w3.org/2000/svg" viewBox="0 0 18 18" id="instagram">
    <path fill-rule="evenodd" clip-rule="evenodd" d="M5.8125 0.5H12.1875C15.1211 0.5 17.5 2.87894 17.5 5.8125V12.1875C17.5 15.1211 15.1211 17.5 12.1875 17.5H5.8125C2.87894 17.5 0.5 15.1211 0.5 12.1875V5.8125C0.5 2.87894 2.87894 0.5 5.8125 0.5ZM12.1875 15.9062C14.2381 15.9062 15.9062 14.2381 15.9062 12.1875V5.8125C15.9062 3.76187 14.2381 2.09375 12.1875 2.09375H5.8125C3.76187 2.09375 2.09375 3.76187 2.09375 5.8125V12.1875C2.09375 14.2381 3.76187 15.9062 5.8125 15.9062H12.1875Z"></path>
    <path fill-rule="evenodd" clip-rule="evenodd" d="M4.75 9C4.75 6.65294 6.65294 4.75 9 4.75C11.3471 4.75 13.25 6.65294 13.25 9C13.25 11.3471 11.3471 13.25 9 13.25C6.65294 13.25 4.75 11.3471 4.75 9ZM6.34375 9C6.34375 10.4641 7.53587 11.6562 9 11.6562C10.4641 11.6562 11.6562 10.4641 11.6562 9C11.6562 7.53481 10.4641 6.34375 9 6.34375C7.53587 6.34375 6.34375 7.53481 6.34375 9Z"></path>
    <path d="M13.6042 5.45825C14.191 5.45825 14.6667 4.98255 14.6667 4.39575C14.6667 3.80895 14.191 3.33325 13.6042 3.33325C13.0174 3.33325 12.5417 3.80895 12.5417 4.39575C12.5417 4.98255 13.0174 5.45825 13.6042 5.45825Z"></path>
  </symbol>
  <symbol xmlns="http://www.w3.org/2000/svg" viewBox="0 0 14 17" id="pinterest">
    <path d="M10.8089 1.80026C9.75561 0.773661 8.29803 0.208252 6.70463 0.208252C4.27063 0.208252 2.77362 1.22127 1.94639 2.07104C0.926898 3.11828 0.342285 4.5088 0.342285 5.88615C0.342285 7.6155 1.05472 8.94284 2.24778 9.43664C2.32788 9.46996 2.40847 9.48675 2.48748 9.48675C2.73917 9.48675 2.9386 9.31954 3.00769 9.05132C3.04796 8.89744 3.14128 8.51783 3.18185 8.35302C3.26871 8.02758 3.19853 7.87104 3.00912 7.64441C2.66406 7.22987 2.50337 6.73967 2.50337 6.10171C2.50337 4.20676 3.8931 2.1928 6.46883 2.1928C8.51256 2.1928 9.78211 3.37217 9.78211 5.27063C9.78211 6.46864 9.52795 7.57812 9.06632 8.39481C8.74554 8.96228 8.18146 9.63872 7.3155 9.63872C6.94102 9.63872 6.60464 9.48254 6.39238 9.21026C6.19187 8.95286 6.12579 8.62035 6.20643 8.2738C6.29753 7.88227 6.42175 7.47384 6.54197 7.079C6.76123 6.35786 6.96851 5.67675 6.96851 5.13334C6.96851 4.20385 6.40571 3.57931 5.56817 3.57931C4.50377 3.57931 3.66988 4.67696 3.66988 6.07821C3.66988 6.76543 3.84977 7.27943 3.9312 7.4768C3.79711 8.05363 3.00019 11.483 2.84902 12.1297C2.76162 12.5072 2.2351 15.4888 3.10659 15.7266C4.08576 15.9937 4.961 13.0898 5.05008 12.7617C5.12228 12.4948 5.37491 11.4857 5.52973 10.8653C6.00241 11.3276 6.7635 11.6402 7.50407 11.6402C8.90016 11.6402 10.1557 11.0023 11.0394 9.84416C11.8965 8.72086 12.3686 7.15521 12.3686 5.43583C12.3686 4.09166 11.8 2.76652 10.8089 1.80026Z"></path>
  </symbol>
  <symbol xmlns="http://www.w3.org/2000/svg" viewBox="0 0 21 14" id="google-plus">
    <path d="M0.223131 6.96186C0.103868 3.7604 2.85429 0.801866 5.99753 0.763482C7.59955 0.624172 9.15814 1.25845 10.3705 2.29295C9.87319 2.85046 9.36718 3.40152 8.82667 3.91743C7.75936 3.25631 6.47432 2.75248 5.22692 3.19994C3.21498 3.78402 1.99655 6.20599 2.74109 8.2127C3.35768 10.3085 5.85799 11.4587 7.81754 10.5783C8.8322 10.2079 9.50118 9.25337 9.79473 8.22774C8.63185 8.20411 7.4687 8.21888 6.30582 8.18613C6.30293 7.48072 6.30003 6.77799 6.30293 6.07258C8.2422 6.06963 10.1844 6.06372 12.1266 6.08144C12.2458 7.8098 11.9957 9.65949 10.8936 11.0467C9.38455 13.0268 6.59648 13.608 4.32837 12.8312C1.92125 12.0251 0.170739 9.55266 0.223131 6.96186Z"></path>
    <path d="M15.9067 4.2937C16.4824 4.2937 17.058 4.2937 17.6364 4.2937C17.6395 4.88369 17.6451 5.47663 17.6482 6.06635C18.2266 6.07226 18.8082 6.07521 19.3869 6.07816C19.3869 6.66815 19.3869 7.25492 19.3869 7.84491C18.8085 7.84786 18.2269 7.85082 17.6482 7.85377C17.6424 8.44671 17.6395 9.03643 17.6364 9.62937C17.058 9.62642 16.479 9.62937 15.9035 9.62937C15.898 9.03643 15.898 8.44671 15.8919 7.85672C15.3135 7.85055 14.7319 7.84786 14.1533 7.84464C14.1533 7.25465 14.1533 6.66789 14.1533 6.0779C14.7319 6.07494 15.3106 6.07199 15.8919 6.06609C15.8948 5.47663 15.9006 4.88369 15.9067 4.2937Z"></path>
  </symbol>
  <symbol xmlns="http://www.w3.org/2000/svg" viewBox="0 0 16 14" id="twitter">
    <path d="M15.7917 2.1344C15.2185 2.39029 14.6019 2.56336 13.9553 2.64066C14.6155 2.24242 15.1221 1.61231 15.3613 0.860244C14.7435 1.22919 14.059 1.49684 13.3311 1.64111C12.7479 1.01579 11.9169 0.625 10.9968 0.625C9.23149 0.625 7.79971 2.06647 7.79971 3.84377C7.79971 4.09605 7.82809 4.34162 7.88293 4.57734C5.22586 4.44316 2.86993 3.1618 1.29295 1.21383C1.0178 1.68912 0.859958 2.24242 0.859958 2.83222C0.859958 3.94867 1.4248 4.93429 2.2822 5.51136C1.75836 5.4948 1.26505 5.35005 0.834208 5.10832C0.83397 5.12201 0.83397 5.13569 0.83397 5.14913C0.83397 6.70871 1.93647 8.00951 3.39877 8.30501C3.13077 8.37894 2.84775 8.41807 2.55663 8.41807C2.35015 8.41807 2.15011 8.39814 1.95507 8.3607C2.36183 9.63918 3.5423 10.5698 4.94165 10.596C3.84725 11.4594 2.46889 11.9739 0.97059 11.9739C0.713085 11.9739 0.457965 11.9587 0.208328 11.9287C1.62246 12.8423 3.30339 13.375 5.10879 13.375C10.9894 13.375 14.2054 8.4704 14.2054 4.21656C14.2054 4.07709 14.2023 3.9381 14.1961 3.80032C14.8212 3.34663 15.3632 2.77989 15.7917 2.1344Z" ></path>
  </symbol>
  <symbol xmlns="http://www.w3.org/2000/svg" viewBox="0 0 10 17" id="facebook">
    <path d="M8.78314 0.211465L6.78403 0.208252C4.53811 0.208252 3.08669 1.69991 3.08669 4.00866V5.7609H1.07668C0.902995 5.7609 0.762344 5.90195 0.762344 6.07594V8.61474C0.762344 8.78872 0.903156 8.92962 1.07668 8.92962H3.08669V15.3358C3.08669 15.5098 3.22734 15.6507 3.40103 15.6507H6.02352C6.19721 15.6507 6.33786 15.5096 6.33786 15.3358V8.92962H8.68803C8.86172 8.92962 9.00237 8.78872 9.00237 8.61474L9.00333 6.07594C9.00333 5.9924 8.97014 5.91239 8.91128 5.85327C8.85242 5.79415 8.77223 5.7609 8.68884 5.7609H6.33786V4.2755C6.33786 3.56156 6.5077 3.19913 7.43613 3.19913L8.78282 3.19865C8.95634 3.19865 9.097 3.05759 9.097 2.88377V0.526345C9.097 0.352679 8.9565 0.211786 8.78314 0.211465Z"></path>
  </symbol>

  <symbol xmlns="http://www.w3.org/2000/svg" fill="currentColor" viewBox="0 0 16 16" id="chevron-up">
    <path fill-rule="evenodd" d="M7.646 4.646a.5.5 0 0 1 .708 0l6 6a.5.5 0 0 1-.708.708L8 5.707l-5.646 5.647a.5.5 0 0 1-.708-.708z"></path>
  </symbol>
</svg>
