<?xml version="1.0" standalone="no"?>
<!DOCTYPE svg PUBLIC "-//W3C//DTD SVG 20010904//EN"
 "http://www.w3.org/TR/2001/REC-SVG-20010904/DTD/svg10.dtd">
<svg version="1.0" xmlns="http://www.w3.org/2000/svg"
 width="1248.000000pt" height="1248.000000pt" viewBox="0 0 1248.000000 1248.000000"
 preserveAspectRatio="xMidYMid meet">
<metadata>
Created by potrace 1.14, written by Peter Selinger 2001-2017
</metadata>
<g transform="translate(0.000000,1248.000000) scale(0.100000,-0.100000)"
fill="#000000" stroke="none">
<path d="M816 9912 c-2 -4 -18 -9 -35 -10 -51 -4 -181 -49 -264 -91 -261 -134
-444 -382 -501 -678 -13 -68 -15 -421 -15 -2893 0 -1859 3 -2832 10 -2865 6
-27 11 -59 13 -70 6 -43 32 -119 67 -190 13 -27 23 -53 21 -57 -1 -4 2 -8 7
-8 5 0 14 -13 21 -30 7 -16 16 -30 21 -30 5 0 9 -5 9 -11 0 -12 66 -94 116
-144 55 -55 168 -134 249 -174 92 -45 129 -58 240 -82 76 -17 379 -17 5485
-16 2973 1 5418 6 5433 10 16 4 53 14 82 22 30 7 63 19 74 25 12 6 21 9 21 6
0 -9 174 86 214 117 134 104 215 199 288 338 30 56 66 147 69 171 0 4 5 22 11
40 5 18 13 51 16 73 10 57 9 5700 -1 5759 -17 107 -117 351 -149 364 -4 2 -8
8 -8 14 0 12 -80 108 -125 151 -84 80 -269 197 -310 197 -8 0 -15 5 -15 12 0
6 -3 9 -6 5 -3 -3 -18 -1 -33 5 -14 5 -33 11 -41 13 -157 36 67 34 -5557 35
-2971 0 -5404 -4 -5407 -8z"/>
</g>
</svg>
